name analog
datacolumns 19
datarows 43
range 0.5835 0.6045
endheader
time	ground_force_vx	ground_force_vy	ground_force_vz	ground_force_px	ground_force_py	ground_force_pz	l_ground_force_vx	l_ground_force_vy	l_ground_force_vz	l_ground_force_px	l_ground_force_py	l_ground_force_pz	ground_torque_x	ground_torque_y	ground_torque_z	l_ground_torque_x	l_ground_torque_y	l_ground_torque_z
0.5835	-0.0	-0.0	-0.0	10.748858451843262	32.627376556396484	-251.464111328125	-24.15450859069824	-91.64012145996094	-350.0496826171875	-0.0	-0.0	-0.0	-0.0	-0.0	-0.0	42483.92578125	63370.171875	-21284.18359375
0.584	-0.0	-0.0	-0.0	12.105591773986816	32.138267517089844	-251.38919067382807	-24.73137664794922	-91.21745300292967	-348.2297668457031	-0.0	-0.0	-0.0	-0.0	-0.0	-0.0	42176.67578125	63462.69921875	-21299.203125
0.5845	-0.0	-0.0	-0.0	13.470787048339844	31.903705596923828	-254.7721710205078	-25.72612762451172	-90.91504669189452	-344.835205078125	-0.0	-0.0	-0.0	-0.0	-0.0	-0.0	41883.93359375	63223.8515625	-21482.1875
0.585	-0.0	-0.0	-0.0	15.090569496154783	32.07733154296875	-256.353271484375	-26.27720642089844	-90.40394592285156	-340.9730529785156	-0.0	-0.0	-0.0	-0.0	-0.0	-0.0	41252.796875	63017.90625	-21630.78125
0.5855	-0.0	-0.0	-0.0	15.508298873901367	32.17607879638672	-258.9156799316406	-27.341651916503903	-89.94877624511719	-337.8313293457031	-0.0	-0.0	-0.0	-0.0	-0.0	-0.0	41585.83203125	62725.6171875	-21726.705078125
0.586	-0.0	-0.0	-0.0	16.1616268157959	32.855953216552734	-266.3387756347656	-28.10733413696289	-88.97245788574219	-334.83642578125	-0.0	-0.0	-0.0	-0.0	-0.0	-0.0	40258.24609375	62915.234375	-21822.240234375
0.5865	-0.0	-0.0	-0.0	15.98731803894043	34.4601936340332	-271.0365905761719	-28.93836212158203	-88.20074462890625	-330.77557373046875	-0.0	-0.0	-0.0	-0.0	-0.0	-0.0	40049.328125	62252.8359375	-21935.046875
0.587	-0.0	-0.0	-0.0	16.608156204223633	35.2735595703125	-276.6867980957031	-30.09151840209961	-87.59254455566406	-326.805908203125	-0.0	-0.0	-0.0	-0.0	-0.0	-0.0	39676.6171875	62420.6953125	-21954.333984375
0.5875	-0.0	-0.0	-0.0	16.838884353637695	36.06418991088867	-284.6031188964844	-30.38008117675781	-86.75035095214844	-324.2889404296875	-0.0	-0.0	-0.0	-0.0	-0.0	-0.0	39210.66015625	62263.43359375	-22219.951171875
0.588	-0.0	-0.0	-0.0	17.469926834106445	36.98912048339844	-291.5679931640625	-31.688230514526367	-86.30868530273438	-319.3427734375	-0.0	-0.0	-0.0	-0.0	-0.0	-0.0	38918.6875	62296.515625	-22404.966796875
0.5885	-0.0	-0.0	-0.0	17.94426918029785	37.72323989868164	-297.23193359375	-32.046260833740234	-85.7754135131836	-316.5614624023437	-0.0	-0.0	-0.0	-0.0	-0.0	-0.0	38450.11328125	62739.08984375	-22612.7578125
0.589	-0.0	-0.0	-0.0	17.59282112121582	37.544769287109375	-300.9920349121094	-33.26654815673828	-85.02030944824219	-315.00701904296875	-0.0	-0.0	-0.0	-0.0	-0.0	-0.0	37947.53515625	63184.8046875	-22828.271484375
0.5895	-0.0	-0.0	-0.0	18.30853843688965	38.55484771728516	-308.33447265625	-34.26332092285156	-85.22776794433594	-312.6854553222656	-0.0	-0.0	-0.0	-0.0	-0.0	-0.0	37640.81640625	63582.37890625	-23314.84765625
0.59	-0.0	-0.0	-0.0	17.89861488342285	39.07551574707031	-314.9718017578125	-36.25111770629883	-84.22500610351562	-307.1816711425781	-0.0	-0.0	-0.0	-0.0	-0.0	-0.0	37367.94921875	63751.52734375	-23582.94921875
0.5905	-0.0	-0.0	-0.0	18.35918426513672	39.32636642456055	-322.6692199707031	-37.98867034912109	-83.83539581298828	-303.97674560546875	-0.0	-0.0	-0.0	-0.0	-0.0	-0.0	36711.13671875	64118.40625	-23969.6953125
0.591	-0.0	-0.0	-0.0	18.749757766723636	40.76875686645508	-329.0971374511719	-39.56501007080078	-82.81150817871094	-299.8499755859375	-0.0	-0.0	-0.0	-0.0	-0.0	-0.0	36189.58984375	64332.9375	-24326.46875
0.5915	-0.0	-0.0	-0.0	18.376338958740234	41.33950424194336	-337.78289794921875	-40.50630187988281	-81.36225128173828	-293.9794006347656	-0.0	-0.0	-0.0	-0.0	-0.0	-0.0	35523.453125	64453.87890625	-24610.765625
0.592	-0.0	-0.0	-0.0	18.180931091308597	43.01484298706055	-344.5643920898437	-42.06694030761719	-80.07329559326172	-289.3757629394531	-0.0	-0.0	-0.0	-0.0	-0.0	-0.0	34605.3046875	64411.8125	-24742.794921875
0.5925	-0.0	-0.0	-0.0	17.645751953125	44.38737487792969	-351.7689514160156	-42.68883514404297	-78.5527114868164	-281.420166015625	-0.0	-0.0	-0.0	-0.0	-0.0	-0.0	34120.2109375	64027.9609375	-24784.45703125
0.593	-0.0	-0.0	-0.0	17.806053161621094	46.45481872558594	-361.1634826660156	-43.87685394287109	-76.83904266357422	-277.7099609375	-0.0	-0.0	-0.0	-0.0	-0.0	-0.0	33203.20703125	63972.41796875	-24778.83203125
0.5935	-0.0	-0.0	-0.0	16.96780776977539	47.506343841552734	-372.1805419921875	-44.44410705566406	-75.19641876220703	-271.84881591796875	-0.0	-0.0	-0.0	-0.0	-0.0	-0.0	32619.681640625	63555.40234375	-24802.30078125
0.594	-0.0	-0.0	-0.0	16.6468448638916	49.27096176147461	-383.4127807617188	-44.94098663330078	-73.1834487915039	-266.7511901855469	-0.0	-0.0	-0.0	-0.0	-0.0	-0.0	31686.357421875	63107.9453125	-24790.361328125
0.5945	-0.0	-0.0	-0.0	16.07561683654785	50.64377975463867	-390.5445556640625	-45.43766403198242	-72.56510162353516	-260.9559326171875	-0.0	-0.0	-0.0	-0.0	-0.0	-0.0	31397.203125	62881.1796875	-24820.220703125
0.595	-0.0	-0.0	-0.0	15.629481315612791	52.35480117797852	-401.4957580566406	-45.82773971557617	-71.54057312011719	-256.6976013183594	-0.0	-0.0	-0.0	-0.0	-0.0	-0.0	30743.3671875	62940.140625	-24855.8046875
0.5955	-0.0	-0.0	-0.0	15.094183921813965	52.92352294921875	-410.9620361328125	-46.39574432373047	-71.36450958251953	-251.6689453125	-0.0	-0.0	-0.0	-0.0	-0.0	-0.0	30334.392578125	62267.62890625	-24832.580078125
0.596	-0.0	-0.0	-0.0	14.112818717956545	54.387088775634766	-422.47271728515625	-47.08785629272461	-71.06480407714844	-248.595947265625	-0.0	-0.0	-0.0	-0.0	-0.0	-0.0	29892.935546875	61262.2421875	-24791.349609375
0.5965	-0.0	-0.0	-0.0	14.184471130371094	56.27803802490234	-433.1988830566406	-47.62145614624024	-70.1622543334961	-245.73388671875	-0.0	-0.0	-0.0	-0.0	-0.0	-0.0	29127.009765625	61209.67578125	-24708.357421875
0.597	-0.0	-0.0	-0.0	14.167031288146973	57.291412353515625	-444.0162353515625	-47.6202392578125	-68.89091491699219	-242.2368927001953	-0.0	-0.0	-0.0	-0.0	-0.0	-0.0	29095.216796875	60696.8203125	-24566.015625
0.5975	-0.0	-0.0	-0.0	14.328182220458984	58.34573745727539	-454.7390441894531	-47.46027374267578	-67.15907287597656	-239.66928100585935	-0.0	-0.0	-0.0	-0.0	-0.0	-0.0	28773.90625	60367.48046875	-24297.951171875
0.598	-0.0	-0.0	-0.0	14.095260620117188	59.59366226196289	-464.7056884765625	-47.56840133666992	-65.89006805419922	-235.60916137695312	-0.0	-0.0	-0.0	-0.0	-0.0	-0.0	28408.06640625	59452.46875	-24055.26953125
0.5985	-0.0	-0.0	-0.0	13.505326271057127	60.214786529541016	-476.5651245117188	-47.24827575683594	-64.0893783569336	-232.7480316162109	-0.0	-0.0	-0.0	-0.0	-0.0	-0.0	28055.1796875	58703.3359375	-23580.005859375
0.599	-0.0	-0.0	-0.0	13.36110782623291	61.05104446411133	-488.7330017089844	-45.86347961425781	-61.81072998046875	-225.6979522705078	-0.0	-0.0	-0.0	-0.0	-0.0	-0.0	27252.939453125	57566.2890625	-23103.9296875
0.5995	-0.0	-0.0	-0.0	12.884115219116213	62.31927490234375	-497.0458984375	-44.9592170715332	-59.79670333862305	-220.1121063232422	-0.0	-0.0	-0.0	-0.0	-0.0	-0.0	26607.353515625	56207.453125	-22444.494140625
0.6	-0.0	-0.0	-0.0	12.064221382141112	63.56706619262695	-509.6239929199219	-43.966304779052734	-57.28668594360352	-213.1172637939453	-0.0	-0.0	-0.0	-0.0	-0.0	-0.0	26173.95703125	54492.96484375	-21551.2109375
0.6005	-0.0	-0.0	-0.0	11.244646072387695	65.37071228027344	-522.0	-41.90556716918945	-54.81734848022461	-207.409912109375	-0.0	-0.0	-0.0	-0.0	-0.0	-0.0	25187.75	52929.75390625	-20778.892578125
0.601	-0.0	-0.0	-0.0	10.008560180664062	65.89701843261719	-534.6973876953125	-40.57852935791016	-52.18486404418945	-199.7147216796875	-0.0	-0.0	-0.0	-0.0	-0.0	-0.0	24259.85546875	51048.06640625	-20042.599609375
0.6015	-0.0	-0.0	-0.0	9.545524597167969	67.57301330566406	-545.443603515625	-38.27230072021485	-49.65773010253906	-189.9222869873047	-0.0	-0.0	-0.0	-0.0	-0.0	-0.0	23308.478515625	49123.5	-19098.2109375
0.602	-0.0	-0.0	-0.0	9.601034164428713	67.97975158691406	-555.2459716796875	-36.19835662841797	-46.760101318359375	-180.51138305664065	-0.0	-0.0	-0.0	-0.0	-0.0	-0.0	22167.205078125	46900.6953125	-18008.390625
0.6025	-0.0	-0.0	-0.0	9.550665855407717	68.3578872680664	-566.5671997070312	-33.69326400756836	-43.86687088012695	-170.95176696777344	-0.0	-0.0	-0.0	-0.0	-0.0	-0.0	21057.091796875	44546.56640625	-17046.892578125
0.603	-0.0	-0.0	-0.0	9.919095993041992	69.32674407958984	-576.9415283203125	-30.76589012145996	-40.68787384033203	-161.17617797851562	-0.0	-0.0	-0.0	-0.0	-0.0	-0.0	19941.2109375	42299.19921875	-15761.4150390625
0.6035	-0.0	-0.0	-0.0	9.885671615600586	69.88396453857422	-585.90283203125	-28.62527275085449	-38.281681060791016	-151.74935913085938	-0.0	-0.0	-0.0	-0.0	-0.0	-0.0	18398.94140625	39503.35546875	-14769.2333984375
0.604	-0.0	-0.0	-0.0	9.456314086914062	70.36776733398438	-595.9463500976562	-26.158411026000977	-35.40040969848633	-141.8423614501953	-0.0	-0.0	-0.0	-0.0	-0.0	-0.0	17481.583984375	37092.19921875	-13735.98828125
0.6045	-0.0	-0.0	-0.0	9.30087661743164	71.32727813720703	-605.3504638671875	-23.29777717590332	-32.723609924316406	-132.63522338867188	-0.0	-0.0	-0.0	-0.0	-0.0	-0.0	16361.564453125	34910.609375	-12567.2265625
